<?xml version="1.0" encoding="UTF-8"?>
<svg version="1.1" xmlns="http://www.w3.org/2000/svg" width="100" height="100">
<path d="M0 0 C0.73347656 0.45761719 1.46695313 0.91523438 2.22265625 1.38671875 C5.47053165 3.37096229 7.0510688 3.43859741 10.7265625 2.6171875 C17.70731651 1.74987782 22.39704285 5.1283922 28.16015625 8.69921875 C29.18689453 9.30701172 30.21363281 9.91480469 31.27148438 10.54101562 C34.97854039 12.74580238 38.63376367 14.9941237 42.22265625 17.38671875 C43.10773593 22.81159487 43.11464186 27.96278142 42.22265625 33.38671875 C39.97287238 36.2180794 37.68777635 37.44042089 34.22265625 38.38671875 C33.56265625 38.38671875 32.90265625 38.38671875 32.22265625 38.38671875 C32.14015625 39.27359375 32.05765625 40.16046875 31.97265625 41.07421875 C31.10143478 44.92211358 30.12422163 46.72041543 27.22265625 49.38671875 C24.10519607 49.78469239 21.85869425 49.5766905 18.85546875 48.6796875 C15.33085808 48.28748305 13.94856899 49.38047439 11.03515625 51.32421875 C6.38210955 54.38671875 6.38210955 54.38671875 4.22265625 54.38671875 C4.14015625 55.27359375 4.05765625 56.16046875 3.97265625 57.07421875 C3.10143478 60.92211358 2.12422163 62.72041543 -0.77734375 65.38671875 C-3.80100132 65.76467595 -5.95220495 65.66176502 -8.83984375 64.69921875 C-10.96969929 64.13933619 -10.96969929 64.13933619 -13.21484375 65.88671875 C-15.77734375 67.38671875 -15.77734375 67.38671875 -18.09692383 67.15991211 C-21.10597141 66.29192288 -23.50545347 65.06549777 -26.2265625 63.515625 C-27.23912109 62.94134766 -28.25167969 62.36707031 -29.29492188 61.77539062 C-30.34099609 61.17275391 -31.38707031 60.57011719 -32.46484375 59.94921875 C-33.52251953 59.35044922 -34.58019531 58.75167969 -35.66992188 58.13476562 C-43.49346633 53.67059617 -43.49346633 53.67059617 -45.77734375 51.38671875 C-46.5848923 46.23320279 -46.67443672 41.50124267 -45.77734375 36.38671875 C-43.26454658 33.279078 -40.39323514 31.96508404 -36.77734375 30.38671875 C-35.45714877 29.60795205 -34.14363431 28.81764836 -32.83984375 28.01171875 C-29.77734375 26.38671875 -29.77734375 26.38671875 -27.77734375 26.38671875 C-27.57109375 25.62359375 -27.36484375 24.86046875 -27.15234375 24.07421875 C-26.69859375 22.85734375 -26.24484375 21.64046875 -25.77734375 20.38671875 C-25.34615234 19.15115234 -25.34615234 19.15115234 -24.90625 17.890625 C-21.85970018 10.84860001 -17.63596492 7.40638623 -11.21484375 3.57421875 C-10.47032959 3.12336914 -9.72581543 2.67251953 -8.95874023 2.20800781 C-3.57228068 -0.78881585 -3.57228068 -0.78881585 0 0 Z " fill="#B23E3E" transform="translate(51.77734375,17.61328125)"/>
<path d="M0 0 C3.69567695 1.37323882 6.9425785 3.06220077 10.30859375 5.109375 C11.30310547 5.69847656 12.29761719 6.28757812 13.32226562 6.89453125 C15.40311683 8.13390971 17.47608609 9.38661601 19.54101562 10.65234375 C20.53681641 11.23628906 21.53261719 11.82023437 22.55859375 12.421875 C23.45892334 12.96424805 24.35925293 13.50662109 25.28686523 14.06542969 C28.89059364 15.30677517 30.57425086 14.51976137 34 13 C36.15300464 11.84230164 38.27883851 10.63269689 40.375 9.375 C41.43460938 8.74335937 42.49421875 8.11171875 43.5859375 7.4609375 C44.38257813 6.97882812 45.17921875 6.49671875 46 6 C48.64752004 8.57784846 50.94432065 10.91648098 53 14 C49.14613806 16.25052225 45.29185589 18.50032384 41.4375 20.75 C40.35146484 21.38421875 39.26542969 22.0184375 38.14648438 22.671875 C36.03717737 23.90283836 33.9257481 25.13017375 31.81201172 26.35351562 C30.12802028 27.33952346 28.45381888 28.34301581 26.80126953 29.38085938 C22.48971294 32.05644216 22.48971294 32.05644216 20.18041992 31.7902832 C17.31431726 30.75147743 14.79372144 29.34236265 12.140625 27.83984375 C10.46806641 26.8972168 10.46806641 26.8972168 8.76171875 25.93554688 C7.59108757 25.26963367 6.42051539 24.60361673 5.25 23.9375 C4.06404747 23.26714381 2.87785207 22.59721711 1.69140625 21.92773438 C-1.20814787 20.28936843 -4.10514351 18.64664758 -7 17 C-6.24535822 12.77588481 -4.91277186 9.51196253 -2.9375 5.6875 C-2.38964844 4.61886719 -1.84179688 3.55023437 -1.27734375 2.44921875 C-0.64505859 1.23685547 -0.64505859 1.23685547 0 0 Z " fill="#69DDFA" transform="translate(31,28)"/>
<path d="M0 0 C3.18229301 1.30746135 6.03336655 2.80446913 8.99365234 4.55517578 C10.05712891 5.18037109 11.12060547 5.80556641 12.21630859 6.44970703 C13.31072266 7.10068359 14.40513672 7.75166016 15.53271484 8.42236328 C16.65033203 9.08107422 17.76794922 9.73978516 18.91943359 10.41845703 C21.66855209 12.03973204 24.41447766 13.66616341 27.15771484 15.29736328 C23.54721958 18.26956638 20.09248074 20.39763398 15.90771484 22.48486328 C11.61674849 24.78263459 11.61674849 24.78263459 9.15771484 28.75048828 C8.93031767 31.01024768 8.89210574 33.04479373 9.15771484 35.29736328 C6.66926813 33.97520801 4.19710261 32.63068028 1.73583984 31.25830078 C-0.92894656 29.77530258 -3.63310331 28.3931927 -6.35791016 27.02392578 C-17.94065066 21.00519465 -17.94065066 21.00519465 -20.24462891 16.64111328 C-20.50540948 13.60324837 -20.24393092 12.00689924 -18.84228516 9.29736328 C-16.15591006 6.61674059 -13.19670023 5.02279723 -9.84228516 3.29736328 C-8.87935547 2.64380859 -8.87935547 2.64380859 -7.89697266 1.97705078 C-4.96178264 -0.01045457 -3.5120649 -0.86821189 0 0 Z " fill="#E54F4F" transform="translate(24.84228515625,44.70263671875)"/>
<path d="M0 0 C0.721875 0.45375 1.44375 0.9075 2.1875 1.375 C3.280625 1.91125 4.37375 2.4475 5.5 3 C6.386875 3.45375 7.27375 3.9075 8.1875 4.375 C8.1875 5.035 8.1875 5.695 8.1875 6.375 C8.88230469 6.6328125 9.57710937 6.890625 10.29296875 7.15625 C13.51734322 8.51388136 16.46916232 10.12829013 19.5 11.875 C20.56863281 12.4834375 21.63726562 13.091875 22.73828125 13.71875 C23.95064453 14.53859375 23.95064453 14.53859375 25.1875 15.375 C25.1875 16.035 25.1875 16.695 25.1875 17.375 C22.65889529 18.94261479 20.11840889 20.47809278 17.5625 22 C16.84964844 22.44601563 16.13679688 22.89203125 15.40234375 23.3515625 C14.69980469 23.7640625 13.99726562 24.1765625 13.2734375 24.6015625 C12.6345459 24.98908691 11.9956543 25.37661133 11.33740234 25.77587891 C7.32908648 26.89289084 4.03625428 24.80643603 0.48681641 23.00219727 C-2.41154939 21.32534183 -5.30394733 19.63972625 -8.1875 17.9375 C-9.20972656 17.35162109 -10.23195313 16.76574219 -11.28515625 16.16210938 C-12.25066406 15.59427734 -13.21617188 15.02644531 -14.2109375 14.44140625 C-15.09442871 13.92521729 -15.97791992 13.40902832 -16.88818359 12.87719727 C-17.52320801 12.38147217 -18.15823242 11.88574707 -18.8125 11.375 C-18.8125 10.385 -18.8125 9.395 -18.8125 8.375 C-16.26171084 6.81035612 -13.69996037 5.2739104 -11.125 3.75 C-10.40376953 3.30398437 -9.68253906 2.85796875 -8.93945312 2.3984375 C-3.50372936 -0.77860653 -3.50372936 -0.77860653 0 0 Z " fill="#E44E4F" transform="translate(51.8125,17.625)"/>
<path d="M0 0 C0.5 2.1875 0.5 2.1875 0 5 C-2.83885166 7.3981167 -6.18795831 10 -10 10 C-10.0825 10.886875 -10.165 11.77375 -10.25 12.6875 C-11.12122147 16.53539483 -12.09843462 18.33369668 -15 21 C-18.11746018 21.39797364 -20.363962 21.18997175 -23.3671875 20.29296875 C-26.89179817 19.9007643 -28.27408726 20.99375564 -31.1875 22.9375 C-35.8405467 26 -35.8405467 26 -38 26 C-38.0825 26.886875 -38.165 27.77375 -38.25 28.6875 C-39.12122147 32.53539483 -40.09843462 34.33369668 -43 37 C-46.02365757 37.3779572 -48.1748612 37.27504627 -51.0625 36.3125 C-53.19235554 35.75261744 -53.19235554 35.75261744 -55.4375 37.5 C-58 39 -58 39 -60.31958008 38.77319336 C-63.32862766 37.90520413 -65.72810972 36.67877902 -68.44921875 35.12890625 C-69.46177734 34.55462891 -70.47433594 33.98035156 -71.51757812 33.38867188 C-72.56365234 32.78603516 -73.60972656 32.18339844 -74.6875 31.5625 C-75.74517578 30.96373047 -76.80285156 30.36496094 -77.89257812 29.74804688 C-85.71612258 25.28387742 -85.71612258 25.28387742 -88 23 C-88.125 20.375 -88.125 20.375 -88 18 C-82.52646365 20.5991653 -77.15334767 23.21913223 -72.0390625 26.47265625 C-71.04724976 27.09926147 -71.04724976 27.09926147 -70.03540039 27.73852539 C-68.73540202 28.56974573 -67.44509227 29.41634691 -66.16577148 30.27905273 C-64.15396695 31.61640055 -64.15396695 31.61640055 -61 33 C-57.38115287 31.89526816 -54.17822704 30.07998926 -50.88671875 28.234375 C-49.89704102 27.68048096 -48.90736328 27.12658691 -47.88769531 26.5559082 C-46.83163086 25.9599585 -45.77556641 25.36400879 -44.6875 24.75 C-43.59405273 24.13535889 -42.50060547 23.52071777 -41.37402344 22.88745117 C-22.67905122 12.3891996 -22.67905122 12.3891996 -4.32128906 1.32104492 C-2 0 -2 0 0 0 Z " fill="#858182" transform="translate(94,46)"/>
<path d="M0 0 C2.64752004 2.57784846 4.94432065 4.91648098 7 8 C6.29915283 8.40839111 5.59830566 8.81678223 4.8762207 9.23754883 C1.68812172 11.09553651 -1.49969186 12.95401335 -4.6875 14.8125 C-5.79029297 15.45509766 -6.89308594 16.09769531 -8.02929688 16.75976562 C-9.09599609 17.38173828 -10.16269531 18.00371094 -11.26171875 18.64453125 C-12.24100342 19.21534424 -13.22028809 19.78615723 -14.22924805 20.37426758 C-16.07961917 21.45996864 -17.91472696 22.57210261 -19.73364258 23.7097168 C-22 25 -22 25 -24 25 C-23.42771172 22.97097793 -22.72881089 20.97820098 -22 19 C-21.78601562 18.32324219 -21.57203125 17.64648438 -21.3515625 16.94921875 C-17.62503164 7.98324921 -8.16676071 4.27385285 0 0 Z " fill="#4790A4" transform="translate(77,34)"/>
<path d="M0 0 C2.88427734 1.36694336 2.88427734 1.36694336 5.8359375 3.08984375 C6.89941406 3.70923828 7.96289062 4.32863281 9.05859375 4.96679688 C10.15300781 5.61712891 11.24742188 6.26746094 12.375 6.9375 C13.49261719 7.58396484 14.61023438 8.23042969 15.76171875 8.89648438 C21.86701139 12.48585972 21.86701139 12.48585972 24 14 C24 14.66 24 15.32 24 16 C19.05 18.475 19.05 18.475 14 21 C13.01 19.700625 12.02 18.40125 11 17.0625 C5.24207783 10.4909584 -2.33798884 6.93328971 -10 3 C-10 2.34 -10 1.68 -10 1 C-6.36990238 -1.37352537 -4.13941023 -0.96745439 0 0 Z " fill="#CC4545" transform="translate(70,21)"/>
<path d="M0 0 C1.99022404 1.04164064 3.96695093 2.1091015 5.9375 3.1875 C7.59072266 4.07501953 7.59072266 4.07501953 9.27734375 4.98046875 C12 7 12 7 12.65625 9.59375 C12.82640625 10.78484375 12.82640625 10.78484375 13 12 C14.58642078 13.43768661 14.58642078 13.43768661 16.5625 14.3125 C17.696875 14.869375 18.83125 15.42625 20 16 C20 17.65 20 19.3 20 21 C16.94547808 19.37707907 13.90937739 17.72293602 10.88476562 16.04492188 C9.52847982 15.2929914 8.17015578 14.5447331 6.81054688 13.79882812 C4.46852531 12.50688172 2.13985247 11.19315946 -0.1875 9.875 C-0.95441162 9.45557129 -1.72132324 9.03614258 -2.51147461 8.60400391 C-3.22311768 8.19585449 -3.93476074 7.78770508 -4.66796875 7.3671875 C-5.31016357 7.00737793 -5.9523584 6.64756836 -6.61401367 6.27685547 C-7.07138916 5.85549316 -7.52876465 5.43413086 -8 5 C-8 3.68 -8 2.36 -8 1 C-2.125 2.875 -2.125 2.875 -1 4 C-0.67 2.68 -0.34 1.36 0 0 Z " fill="#FC5958" transform="translate(14,59)"/>
<path d="M0 0 C7.13293047 3.32329715 14.00219329 7.02015336 20.75 11.0625 C21.46542969 11.4735498 22.18085938 11.88459961 22.91796875 12.30810547 C24.921875 13.53515625 24.921875 13.53515625 28 16 C28.453125 18.80859375 28.453125 18.80859375 28 21 C24.34883905 19.63389423 21.08486034 17.98495108 17.734375 15.99609375 C16.76242188 15.42052734 15.79046875 14.84496094 14.7890625 14.25195312 C13.78617188 13.65318359 12.78328125 13.05441406 11.75 12.4375 C10.73164063 11.83486328 9.71328125 11.23222656 8.6640625 10.61132812 C1.14501232 6.14501232 1.14501232 6.14501232 0 5 C-0.04063832 3.33382885 -0.042721 1.66611905 0 0 Z " fill="#B9A7A7" transform="translate(6,64)"/>
<path d="M0 0 C0.33 0.99 0.66 1.98 1 3 C-0.3125 5.5 -0.3125 5.5 -2 8 C-2.99 9.485 -2.99 9.485 -4 11 C-6.625 11.1875 -6.625 11.1875 -9 11 C-9.33 9.35 -9.66 7.7 -10 6 C-6.7 4.02 -3.4 2.04 0 0 Z " fill="#7F6F6F" transform="translate(83,56)"/>
<path d="M0 0 C-2.14117647 7.24705882 -2.14117647 7.24705882 -5 10 C-7.6875 10.25 -7.6875 10.25 -10 10 C-10.33 8.35 -10.66 6.7 -11 5 C-9.54462432 4.16151196 -8.08559627 3.32936066 -6.625 2.5 C-5.81289063 2.0359375 -5.00078125 1.571875 -4.1640625 1.09375 C-2 0 -2 0 0 0 Z " fill="#7E6F6F" transform="translate(56,73)"/>
<path d="M0 0 C3.96 1.98 3.96 1.98 8 4 C8 5.65 8 7.3 8 9 C5.0280615 7.87548273 2.66559313 6.77706209 0 5 C-0.1875 2.375 -0.1875 2.375 0 0 Z " fill="#E9D73C" transform="translate(26,66)"/>
<path d="M0 0 C2.9719385 1.12451727 5.33440687 2.22293791 8 4 C8.1875 6.625 8.1875 6.625 8 9 C5.36 7.68 2.72 6.36 0 5 C0 3.35 0 1.7 0 0 Z " fill="#E9D83C" transform="translate(6,55)"/>
</svg>
